# xmcd CD database file
#
# Track frame offsets:
#	150
#	23313
#	45017
#	62803
#	76985
#	92030
#	112484
#	130149
#	159124
#	177621
#	198093
#	218388
#	282551
#	316248
#
# Disc length: 4462 seconds
#
# Revision: 0
# Processed by: cddbd v1.5.2PL0 Copyright (c) Steve Scherf et al.
# Submitted via: CDex 1.51
#
DISCID=b1116c0e
DTITLE=Bembeya_Jazz_National - The_Syliphone_Years_CD1
DYEAR=2004
DGENRE=Jazz
TTITLE0=Republique_Guinee
TTITLE1=Sabor_De_Guarija
TTITLE2=Armee_Guineenne
TTITLE3=Dembaty_Galant
TTITLE4=Air_Guinee
TTITLE5=Guinee_Hety_Horemoun
TTITLE6=Montuno_De_La_Sierra
TTITLE7=Waraba
TTITLE8=Dagna
TTITLE9=Doni_Doni
TTITLE10=Camara_Mousso
TTITLE11=Super_Tentemba
TTITLE12=Mami_Wati
TTITLE13=Alalake
EXTD=YEAR: 2004
EXTT0=
EXTT1=
EXTT2=
EXTT3=
EXTT4=
EXTT5=
EXTT6=
EXTT7=
EXTT8=
EXTT9=
EXTT10=
EXTT11=
EXTT12=
EXTT13=
PLAYORDER=
